<svg width="14" height="13" viewBox="0 0 14 13" fill="none" xmlns="http://www.w3.org/2000/svg">
<path d="M6.58278 0C2.95324 0 0 2.91492 0 6.50008C0 10.0838 2.95324 13.0002 6.58278 13.0002C10.2127 13.0002 13.1658 10.0838 13.1658 6.50008C13.1658 2.91492 10.2127 0 6.58278 0ZM6.58278 11.552C3.76153 11.552 1.46653 9.28575 1.46653 6.50011C1.46653 3.71327 3.76153 1.44706 6.58278 1.44706C9.40435 1.44706 11.6993 3.7133 11.6993 6.50011C11.6993 9.28575 9.40431 11.552 6.58278 11.552Z" fill="#5C6574"/>
<path d="M8.74345 7.67731C8.32293 8.38993 7.54097 8.83198 6.7028 8.83198C5.40119 8.83198 4.34095 7.78523 4.34095 6.49982C4.34095 5.21336 5.40119 4.16625 6.7028 4.16625C7.54101 4.16625 8.32293 4.60993 8.74345 5.32113L8.7978 5.41408H10.3843L10.2891 5.16185C10.013 4.43961 9.5286 3.82553 8.88738 3.38722C8.24454 2.94779 7.48945 2.71466 6.7028 2.71466C4.5896 2.71466 2.87108 4.41318 2.87108 6.49982C2.87108 8.58661 4.5896 10.2835 6.7028 10.2835C7.48945 10.2835 8.2445 10.0512 8.88738 9.61108C9.5286 9.17267 10.013 8.5588 10.2891 7.83657L10.3843 7.58419H8.7978L8.74345 7.67731Z" fill="#5C6574"/>
</svg>
