<svg width="32" height="29" viewBox="0 0 32 29" fill="none" xmlns="http://www.w3.org/2000/svg">
<path d="M16.16 24.5749L16 24.733L15.824 24.5749C8.224 17.7635 3.2 13.2594 3.2 8.6921C3.2 5.53133 5.6 3.16076 8.8 3.16076C11.264 3.16076 13.664 4.74114 14.512 6.89046H17.488C18.336 4.74114 20.736 3.16076 23.2 3.16076C26.4 3.16076 28.8 5.53133 28.8 8.6921C28.8 13.2594 23.776 17.7635 16.16 24.5749ZM23.2 0C20.416 0 17.744 1.28011 16 3.28719C14.256 1.28011 11.584 0 8.8 0C3.872 0 0 3.80872 0 8.6921C0 14.6501 5.44 19.5335 13.68 26.9139L16 29L18.32 26.9139C26.56 19.5335 32 14.6501 32 8.6921C32 3.80872 28.128 0 23.2 0Z" fill="#FFBE7E"/>
</svg>
