<svg width="37" height="29" viewBox="0 0 37 29" fill="none" xmlns="http://www.w3.org/2000/svg">
<path d="M2.64286 2.63636V23.7273C2.64286 24.4265 2.9213 25.097 3.41693 25.5915C3.91256 26.0859 4.58478 26.3636 5.28571 26.3636H31.7143C32.4152 26.3636 33.0874 26.0859 33.5831 25.5915C34.0787 25.097 34.3571 24.4265 34.3571 23.7273V2.63636H2.64286ZM2.64286 0H34.3571C35.0581 0 35.7303 0.277759 36.2259 0.772173C36.7216 1.26659 37 1.93716 37 2.63636V23.7273C37 25.1257 36.4431 26.4668 35.4518 27.4557C34.4606 28.4445 33.1161 29 31.7143 29H5.28571C3.88386 29 2.53941 28.4445 1.54815 27.4557C0.556886 26.4668 0 25.1257 0 23.7273V2.63636C0 1.93716 0.278443 1.26659 0.774075 0.772173C1.26971 0.277759 1.94193 0 2.64286 0Z" fill="#FFC265"/>
<path d="M34.6875 2.63636L24.4676 14.2891C23.7234 15.1377 22.8059 15.8178 21.7767 16.2838C20.7475 16.7498 19.6303 16.9908 18.5 16.9908C17.3697 16.9908 16.2525 16.7498 15.2233 16.2838C14.1941 15.8178 13.2766 15.1377 12.5324 14.2891L2.3125 2.63636H34.6875ZM5.82486 2.63636L14.5199 12.5517C15.016 13.1176 15.6277 13.5712 16.3139 13.8819C17.0001 14.1926 17.7451 14.3534 18.4987 14.3534C19.2523 14.3534 19.9972 14.1926 20.6835 13.8819C21.3697 13.5712 21.9814 13.1176 22.4775 12.5517L31.1751 2.63636H5.82486Z" fill="#FFC265"/>
</svg>
