<svg width="31" height="31" viewBox="0 0 31 31" fill="none" xmlns="http://www.w3.org/2000/svg">
<path fill-rule="evenodd" clip-rule="evenodd" d="M13.5467 2.90182C10.7237 2.90182 8.01645 4.02326 6.02035 6.01944C4.02425 8.01561 2.90286 10.723 2.90286 13.546C2.90286 16.369 4.02425 19.0764 6.02035 21.0726C8.01645 23.0688 10.7237 24.1902 13.5467 24.1902C16.3696 24.1902 19.0769 23.0688 21.073 21.0726C23.0691 19.0764 24.1905 16.369 24.1905 13.546C24.1905 10.723 23.0691 8.01561 21.073 6.01944C19.0769 4.02326 16.3696 2.90182 13.5467 2.90182ZM3.12724e-08 13.546C0.000182758 11.3798 0.519829 9.24515 1.51535 7.32122C2.51087 5.39729 3.95323 3.74015 5.72144 2.48882C7.48965 1.23749 9.53215 0.428447 11.6776 0.129565C13.8231 -0.169316 16.0089 0.0506769 18.0518 0.771091C20.0946 1.4915 21.935 2.69133 23.4184 4.26992C24.9018 5.84851 25.9851 7.75984 26.5773 9.84356C27.1695 11.9273 27.2533 14.1227 26.8219 16.2455C26.3904 18.3683 25.4562 20.3568 24.0976 22.044L30.538 28.4866C30.6806 28.6195 30.795 28.7797 30.8744 28.9578C30.9537 29.1358 30.9963 29.328 30.9998 29.5229C31.0032 29.7178 30.9674 29.9114 30.8944 30.0921C30.8214 30.2729 30.7127 30.437 30.5749 30.5749C30.4371 30.7127 30.2729 30.8214 30.0922 30.8944C29.9114 30.9674 29.7179 31.0032 29.523 30.9998C29.3281 30.9963 29.1359 30.9537 28.9578 30.8743C28.7798 30.795 28.6196 30.6806 28.4867 30.538L22.0443 24.0973C20.054 25.7005 17.6508 26.7079 15.1123 27.0033C12.5738 27.2987 10.0035 26.8699 7.69827 25.7666C5.39307 24.6632 3.44698 22.9302 2.08478 20.7678C0.722578 18.6054 -0.000173587 16.1018 3.12724e-08 13.546Z" fill="#FFBE7E"/>
</svg>
