<svg width="85" height="85" viewBox="0 0 85 85" fill="none" xmlns="http://www.w3.org/2000/svg">
<path d="M1.81389 42.1306C1.81189 49.2959 3.69252 56.2924 7.2685 62.4591L1.47189 83.5291L23.131 77.8753C29.1216 81.1219 35.8336 82.8232 42.6544 82.8237H42.6723C65.189 82.8237 83.5181 64.5829 83.5278 42.1627C83.5321 31.2985 79.2861 21.0825 71.5717 13.3965C63.8586 5.71125 53.6005 1.47657 42.6707 1.47161C20.1513 1.47161 1.82318 19.7114 1.81389 42.1306Z" fill="url(#paint0_linear_8_267)"/>
<path d="M0.355273 42.1174C0.352949 49.5406 2.30098 56.7872 6.00445 63.1748L0 85L22.4357 79.1436C28.6174 82.4991 35.5775 84.2682 42.6597 84.2708H42.678C66.0025 84.2708 84.99 65.3739 85 42.1511C85.004 30.8965 80.6052 20.3133 72.6152 12.352C64.6242 4.39169 53.9992 0.0046277 42.678 0C19.3495 0 0.36457 18.8943 0.355273 42.1174ZM13.7165 62.0747L12.8788 60.7508C9.3573 55.1764 7.49859 48.7347 7.50125 42.12C7.50855 22.8176 23.288 7.11344 42.6912 7.11344C52.0877 7.11741 60.9184 10.764 67.5604 17.3803C74.202 23.9973 77.8567 32.7932 77.8544 42.1485C77.8457 61.4509 62.0659 77.157 42.678 77.157H42.664C36.3511 77.1537 30.1597 75.4659 24.7602 72.2765L23.4753 71.5178L10.1615 74.9929L13.7165 62.0747Z" fill="url(#paint1_linear_8_267)"/>
<path d="M32.1001 24.5096C31.3079 22.7567 30.4742 22.7214 29.7208 22.6906C29.1039 22.6642 28.3986 22.6662 27.6941 22.6662C26.9888 22.6662 25.843 22.9303 24.8745 23.9831C23.9049 25.0369 21.173 27.5834 21.173 32.7628C21.173 37.9422 24.9624 42.9481 25.4907 43.6511C26.0196 44.3529 32.8063 55.3219 43.5549 59.5417C52.4878 63.0485 54.3057 62.351 56.2444 62.1752C58.1835 62 62.5012 59.6293 63.3821 57.171C64.2636 54.713 64.2637 52.6061 63.9994 52.1658C63.7351 51.7271 63.0298 51.4637 61.9723 50.9375C60.9148 50.4112 55.7155 47.864 54.7463 47.5126C53.7768 47.1616 53.0719 46.9864 52.3666 48.0405C51.6614 49.093 49.6363 51.4637 49.0191 52.1658C48.4025 52.8695 47.7853 52.9571 46.7281 52.4306C45.6699 51.9023 42.2643 50.792 38.2238 47.2059C35.0801 44.4154 32.9578 40.9694 32.3408 39.9153C31.7239 38.8628 32.2748 38.2923 32.805 37.7677C33.2802 37.296 33.8629 36.5384 34.3921 35.9239C34.9194 35.309 35.0954 34.8704 35.448 34.1683C35.8009 33.4656 35.6243 32.8507 35.3603 32.3242C35.0954 31.7976 33.0404 26.5911 32.1001 24.5096Z" fill="white"/>
<defs>
<linearGradient id="paint0_linear_8_267" x1="4250" y1="8500" x2="4250" y2="0" gradientUnits="userSpaceOnUse">
<stop stop-color="#1FAF38"/>
<stop offset="1" stop-color="#60D669"/>
</linearGradient>
<linearGradient id="paint1_linear_8_267" x1="4250" y1="8500" x2="4250" y2="0" gradientUnits="userSpaceOnUse">
<stop stop-color="#F9F9F9"/>
<stop offset="1" stop-color="white"/>
</linearGradient>
</defs>
</svg>
